<svg xmlns="http://www.w3.org/2000/svg" width="62" height="51" fill="none" viewBox="0 0 62 51"><path fill="#fff" d="M38.9 21v30h-6.4V21zM6.8 51H0l10.4-30h8.2L29 51h-6.8l-7.5-23.2h-.2L7 51zm-.4-11.8h16.1v5H6.4z"/><path fill="url(#a)" d="M47.8 2.5c1.5 5.7 5.9 10.2 11.7 11.7l2.5.6-2.5.6c-5.7 1.5-10.2 5.9-11.7 11.7l-.6 2.5-.6-2.5c-1.5-5.7-5.9-10.2-11.7-11.7l-2.5-.6 2.5-.6c5.7-1.5 10.2-5.9 11.7-11.7l.6-2.5zm8.2.1c0 1.5 1.7 3.3 3.3 3.3-1.6 0-3.3 1.8-3.3 3.3 0-1.5-1.8-3.3-3.3-3.3 1.6 0 3.3-1.8 3.3-3.3"/><defs><linearGradient id="a" x1="59.3" x2="38.3" y1="1.8" y2="24.3" gradientUnits="userSpaceOnUse"><stop stop-color="#86c443"/><stop offset="1" stop-color="#0b81c4"/></linearGradient></defs></svg>